<?xml version="1.0" encoding="UTF-8" standalone="no"?>
<!-- Created with Inkscape (http://www.inkscape.org/) -->

<svg
   width="512"
   height="512"
   viewBox="0 0 135.46667 135.46667"
   version="1.1"
   id="svg11"
   inkscape:version="1.1.2 (0a00cf5339, 2022-02-04, custom)"
   sodipodi:docname="logo.svg"
   inkscape:export-filename="/home/barcisz/Downloads/rivia-backend/logo.png"
   inkscape:export-xdpi="106.35"
   inkscape:export-ydpi="106.35"
   xmlns:inkscape="http://www.inkscape.org/namespaces/inkscape"
   xmlns:sodipodi="http://sodipodi.sourceforge.net/DTD/sodipodi-0.dtd"
   xmlns="http://www.w3.org/2000/svg"
   xmlns:svg="http://www.w3.org/2000/svg">
  <sodipodi:namedview
     id="namedview13"
     pagecolor="#0004ff"
     bordercolor="#666666"
     borderopacity="1.0"
     inkscape:pageshadow="2"
     inkscape:pageopacity="0"
     inkscape:pagecheckerboard="0"
     inkscape:document-units="px"
     showgrid="false"
     units="px"
     inkscape:zoom="0.74653479"
     inkscape:cx="-38.846147"
     inkscape:cy="364.35007"
     inkscape:window-width="1876"
     inkscape:window-height="1023"
     inkscape:window-x="44"
     inkscape:window-y="33"
     inkscape:window-maximized="1"
     inkscape:current-layer="layer1" />
  <defs
     id="defs8" />
  <g
     inkscape:label="Layer 1"
     inkscape:groupmode="layer"
     id="layer1">
    <circle
       style="fill:#0013ff;fill-opacity:1;fill-rule:evenodd;stroke:#ffffff;stroke-width:5.86201;stroke-miterlimit:4;stroke-dasharray:none"
       id="path84"
       cx="67.733337"
       cy="67.733337"
       r="64.80233" />
    <g
       transform="matrix(0.05680307,0.03343515,0.03424159,-0.05546526,22.994752,88.851745)"
       id="g3015"
       style="fill:#ffffff"
       inkscape:export-filename="/home/barcisz/Downloads/rivia-backend/g3015.png"
       inkscape:export-xdpi="106.35"
       inkscape:export-ydpi="106.35">
      <path
         d="m 885,970 q 18,-20 7,-44 L 352,-231 q -13,-25 -42,-25 -4,0 -14,2 -17,5 -25.5,19 -8.5,14 -4.5,30 L 463,603 57,502 q -4,-1 -12,-1 -18,0 -31,11 -18,15 -13,39 l 201,825 q 4,14 16,23 12,9 28,9 h 328 q 19,0 32,-12.5 13,-12.5 13,-29.5 0,-8 -5,-18 L 443,885 839,983 q 8,2 12,2 19,0 34,-15 z"
         id="path3017"
         inkscape:connector-curvature="0"
         style="fill:#ffffff" />
    </g>
  </g>
</svg>
